<?xml version="1.0" standalone="no"?>
<!DOCTYPE svg PUBLIC "-//W3C//DTD SVG 20010904//EN"
 "http://www.w3.org/TR/2001/REC-SVG-20010904/DTD/svg10.dtd">
<svg version="1.0" xmlns="http://www.w3.org/2000/svg"
 width="500.000000pt" height="500.000000pt" viewBox="0 0 500.000000 500.000000"
 preserveAspectRatio="xMidYMid meet">
<metadata>
Created by potrace 1.11, written by Peter Selinger 2001-2013
</metadata>
<g transform="translate(0.000000,500.000000) scale(0.100000,-0.100000)"
fill="#000000" stroke="none">
<path d="M1700 3936 c-25 -8 -101 -35 -170 -60 -69 -25 -133 -43 -143 -40 -22
7 -57 -22 -57 -47 0 -10 9 -23 20 -29 11 -6 20 -9 20 -6 0 10 111 -33 126 -49
22 -21 27 -97 27 -395 1 -277 -5 -355 -28 -399 -18 -37 -27 -39 -90 -29 -58
10 -184 8 -235 -3 -19 -4 -51 -10 -71 -13 -20 -3 -42 -8 -50 -10 -8 -3 -30 -7
-49 -10 -55 -8 -125 -43 -164 -82 -20 -20 -57 -47 -84 -60 -28 -14 -55 -37
-67 -56 -10 -18 -36 -51 -56 -73 -68 -74 -101 -162 -115 -309 -3 -33 -10 -68
-15 -78 -5 -10 -9 -39 -8 -65 1 -27 -2 -67 -6 -90 -6 -33 -2 -62 20 -130 46
-149 96 -235 149 -257 23 -10 38 -25 48 -52 34 -84 157 -163 293 -189 72 -14
187 -13 242 1 54 14 175 77 205 107 7 7 28 18 45 25 36 12 34 15 48 -71 9 -57
36 -79 88 -72 23 4 45 9 50 12 13 8 281 83 297 83 20 0 70 47 70 65 0 20 -17
28 -73 32 -63 5 -125 36 -131 66 -6 26 -18 383 -18 517 0 52 3 156 6 230 6
115 9 277 17 935 1 44 1 121 0 170 0 50 1 108 4 130 7 62 8 295 1 302 -12 13
-103 12 -146 -1z m-415 -1182 c33 -18 71 -40 85 -48 14 -8 47 -24 73 -35 79
-33 80 -38 83 -441 2 -190 5 -374 8 -411 5 -66 -9 -130 -39 -172 -32 -46 -161
-70 -290 -53 -114 14 -136 23 -188 73 -196 187 -231 270 -236 571 l-2 129 42
94 c55 121 101 194 152 244 50 48 117 100 117 91 0 -4 7 -3 16 2 26 15 114 -7
179 -44z"/>
<path d="M2592 3278 c-7 -7 -12 -19 -12 -27 0 -9 -9 -29 -20 -46 -12 -16 -42
-70 -68 -120 -45 -87 -72 -120 -223 -271 -88 -89 -86 -104 21 -139 30 -10 58
-22 61 -28 8 -11 4 -191 -6 -329 -13 -168 -13 -495 0 -582 25 -166 86 -245
229 -297 72 -26 92 -29 205 -29 152 0 229 20 296 77 43 36 71 85 59 105 -15
23 -49 25 -89 4 -29 -15 -63 -22 -126 -24 -147 -6 -194 18 -254 129 l-29 54
-4 255 c-7 431 -7 462 0 548 5 60 13 91 28 113 l22 30 101 -8 c153 -12 288
-10 322 5 l31 13 0 90 0 90 -41 10 c-22 6 -50 15 -63 20 -34 13 -118 11 -155
-4 -20 -9 -60 -12 -107 -10 -118 4 -125 20 -106 241 8 103 -30 172 -72 130z"/>
<path d="M4108 2945 c-2 -1 -34 -6 -73 -10 -145 -14 -168 -19 -209 -43 -18
-11 -55 -25 -83 -31 -45 -11 -61 -23 -153 -119 -165 -171 -179 -190 -215 -287
-43 -114 -59 -207 -59 -350 1 -108 17 -168 90 -321 41 -87 65 -123 110 -168
73 -72 172 -138 266 -177 68 -28 81 -30 186 -28 191 3 326 47 423 139 48 45
77 97 62 111 -4 4 -53 -15 -108 -42 l-100 -50 -96 3 c-129 5 -203 39 -309 147
-313 315 -259 932 96 1102 34 16 77 29 96 29 57 0 135 -46 173 -102 18 -28 46
-59 62 -69 15 -11 43 -30 62 -44 25 -18 46 -25 80 -25 138 1 182 145 77 253
-42 43 -55 49 -198 76 -45 8 -173 13 -180 6z"/>
</g>
</svg>
